<svg xmlns="http://www.w3.org/2000/svg" xmlns:xlink="http://www.w3.org/1999/xlink" viewBox="0 0 131.64 105.64">
    <defs>
        <style>.cls-1{fill:url(#linear-gradient);}</style>
        <linearGradient id="linear-gradient" x1="13.03" y1="74.74" x2="114.45" y2="1.05" gradientUnits="userSpaceOnUse">
            <stop offset="0" stop-color="#fe3aa5"/><stop offset="0.73" stop-color="#fb8440"/>
        </linearGradient>
    </defs>
    <title>Styled Logo</title>
    <path class="cls-1" d="M1.55,8c43-17.4,130.13-6,130.09,29.22,0,11-16.55,21.31-40.61,25.85C148.52,99.75-46.9,148.28,36.7,35.79c.57-.76,3.43-3.56,12.66,2,4.42,2.65,6.9,7.39,6,8.37-4.41,5-24.94,38.47-20.06,44.43,3.94,4.82,44.45-9.43,46.47-18.78C56.48,72.85,43.69,56.63,52.52,54.91c100.77-19.63,63.84-52.33-38.24-32.7C6.14,23.78-3.9,10.23,1.55,8Z"/>
</svg>